<svg width="45" height="45" xmlns="http://www.w3.org/2000/svg" xmlns:svg="http://www.w3.org/2000/svg">
 <g class="layer">
  <g fill="none" fill-rule="evenodd" id="logo_light">
   <path d="m15.61,24.09l3.74,0l0,18.84l-3.74,0l0,-18.84zm9.04,0l3.74,0l0,18.84l-3.74,0l0,-18.84zm-4.54,-3.78l3.78,0l0,22.58l-3.78,0l0,-22.58z" fill="#ffc107" id="logo_light_1"/>
   <path d="m33.69,12.78l3.74,0l0,9.04l-3.74,3.74l0,-12.78zm-27.12,0l3.78,0l0,12.83l-3.78,-3.79l0,-9.04zm4.54,-4.5l3.78,0l0,21.87l-3.78,-3.79l0,-18.08zm8.24,15.06l-3.78,0l0,-19.6l3.78,0l0,19.6zm0.76,-23.34l3.78,0l0,19.55l-3.78,0l0,-19.55zm8.28,23.34l-3.78,0l0,-19.6l3.78,0l0,19.6zm0.76,-15.06l3.78,0l0,18.08l-3.78,3.79l0,-21.87z" fill="#495057" id="logo_light_3"/>
  </g>
 </g>
</svg>