<svg xmlns="http://www.w3.org/2000/svg" width="102" height="45" viewBox="0 0 102 45">
    <g fill="none" fill-rule="evenodd">
        <path fill="#ffc107" d="M44.61 24.093h3.741v18.836H44.61V24.092zm9.039 0h3.742v18.836h-3.742V24.092zm-4.541-3.785h3.784v22.58h-3.784v-22.58z"/>
        <path fill="#495057" d="M62.688 12.782h3.742v9.04l-3.742 3.742V12.782zm-27.118 0h3.784v12.824l-3.784-3.784v-9.04zm4.54-4.499h3.784v21.864l-3.784-3.784V8.283zm8.241 15.053h-3.784V3.742h3.784v19.594zM49.108 0h3.784v19.552h-3.784V0zm8.283 23.336h-3.784V3.742h3.784v19.594zm.757-15.053h3.783v18.08l-3.783 3.784V8.283z"/>
    </g>
</svg>
