<svg xmlns="http://www.w3.org/2000/svg" width="102" height="60" viewBox="0 0 102 60">
    <g fill="none" fill-rule="evenodd">
        <path fill="#ffc107" d="M44.61 24.093h3.741v18.836H44.61V24.092zm9.039 0h3.742v18.836h-3.742V24.092zm-4.541-3.785h3.784v22.58h-3.784v-22.58z"/>
        <path fill="#495057" d="M62.688 12.782h3.742v9.04l-3.742 3.742V12.782zm-27.118 0h3.784v12.824l-3.784-3.784v-9.04zm4.54-4.499h3.784v21.864l-3.784-3.784V8.283zm8.241 15.053h-3.784V3.742h3.784v19.594zM49.108 0h3.784v19.552h-3.784V0zm8.283 23.336h-3.784V3.742h3.784v19.594zm.757-15.053h3.783v18.08l-3.783 3.784V8.283z"/>
        <path fill="#495057" fill-rule="nonzero" d="M22.704 59.285c-.463.463-1.345.715-2.607.715h-4.204c-1.261 0-2.145-.21-2.607-.673-.505-.462-.757-1.135-.757-2.06v-4.036c0-.925.252-1.598.757-2.06.505-.463 1.346-.673 2.607-.673h4.204c1.262 0 2.144.252 2.607.714.462.463.715 1.136.715 2.06v4.037c-.042.799-.253 1.514-.715 1.976zm-2.186-5.171c0-.505-.126-.925-.295-1.136-.21-.252-.714-.378-1.471-.378h-1.598c-.673 0-1.177.126-1.387.378-.21.253-.337.631-.337 1.093v2.187c0 .505.126.84.337 1.135.252.252.714.379 1.387.379h1.598c.757 0 1.22-.127 1.43-.379.21-.252.336-.63.336-1.135v-2.145zM35.191 59.285c-.462.463-1.345.715-2.607.715H28.38c-1.261 0-2.144-.21-2.649-.673-.504-.462-.715-1.135-.715-2.06v-4.036c0-.925.253-1.598.715-2.06.505-.463 1.388-.673 2.649-.673h4.204c1.262 0 2.145.252 2.607.714.463.463.715 1.136.715 2.06v.926h-2.86c0-.505-.125-.925-.335-1.136-.21-.252-.715-.378-1.472-.378h-1.598c-.714 0-1.177.126-1.387.378-.252.253-.337.631-.337 1.094v2.186c0 .505.127.84.337 1.135.21.253.673.379 1.387.379h1.598c.757 0 1.22-.127 1.472-.379.21-.252.336-.63.336-1.177h2.859v.925c0 .883-.21 1.598-.715 2.06zM40.447 60h-2.86v-9.545h2.86v3.659h5.13v-3.658h2.858V60h-2.859v-3.742h-5.13zM53.775 56.258h-.799c0 .504.126.883.379 1.135.252.252.714.379 1.387.379H60.964v2.186H53.44c-1.262 0-2.145-.21-2.65-.673-.504-.462-.714-1.135-.714-2.06v-4.037c0-.925.252-1.597.715-2.06.504-.462 1.387-.672 2.649-.672h7.526v2.186h-6.223c-.673 0-1.135.126-1.387.378-.21.253-.337.631-.379 1.093H60.965V56.3h-7.19v-.042zM82.954 52.6h-3.91v-2.145H89.89V52.6h-4.078V60h-2.86zM76.521 52.18h-4.415v-1.724H69.29v1.723h-4.54s-2.565.084-2.565 2.986c0 2.9 2.649 2.943 2.649 2.943h4.456V60h2.817v-1.892h4.33s2.65 0 2.65-2.943c0-2.901-2.565-2.986-2.565-2.986zm-1.514 4.036h-2.9v-2.018h2.9s1.01-.127 1.01 1.05c-.043 1.01-1.01.968-1.01.968zm-9.586-.967c0-1.178 1.01-1.051 1.01-1.051h2.9v2.018h-2.9c-.043 0-1.01.042-1.01-.967zM10.133 51.17c-.463-.462-1.346-.715-2.607-.715H0V60h2.817v-3.28h4.709c1.261 0 2.144-.21 2.607-.714.462-.463.714-1.136.714-2.019v-.756c0-.925-.252-1.598-.714-2.06zm-3.07 3.364H2.86v-1.892h4.204c.505 0 .967.42.967.967 0 .505-.462.925-.967.925zM102 57.225v-.757c0-.883-.21-1.556-.673-2.06-.462-.463-1.345-.715-2.606-.715h-4.71v-3.237h-2.858V60h7.525c1.262 0 2.145-.252 2.607-.715.505-.462.715-1.177.715-2.06zm-2.817-.379c0 .505-.42.968-.967.968h-4.204V55.88h4.204c.547 0 .967.462.967.966z"/>
    </g>
</svg>
